<?xml version="1.0" encoding="UTF-8" standalone="no"?>
<svg
   width="24"
   height="24"
   viewBox="0 0 24 24"
   fill="none"
   version="1.1"
   id="svg3725"
   sodipodi:docname="chevron-right-icon-elements-brix-templates.svg"
   inkscape:version="1.2.1 (9c6d41e410, 2022-07-14)"
   xmlns:inkscape="http://www.inkscape.org/namespaces/inkscape"
   xmlns:sodipodi="http://sodipodi.sourceforge.net/DTD/sodipodi-0.dtd"
   xmlns="http://www.w3.org/2000/svg"
   xmlns:svg="http://www.w3.org/2000/svg">
  <defs
     id="defs3729" />
  <sodipodi:namedview
     id="namedview3727"
     pagecolor="#505050"
     bordercolor="#ffffff"
     borderopacity="1"
     inkscape:showpageshadow="0"
     inkscape:pageopacity="0"
     inkscape:pagecheckerboard="1"
     inkscape:deskcolor="#505050"
     showgrid="false"
     inkscape:zoom="34.875"
     inkscape:cx="11.985663"
     inkscape:cy="12.014337"
     inkscape:window-width="1920"
     inkscape:window-height="1017"
     inkscape:window-x="-8"
     inkscape:window-y="-8"
     inkscape:window-maximized="1"
     inkscape:current-layer="svg3725" />
  <path
     d="M7.5 21L16.5 12L7.5 3"
     stroke="#211F54"
     stroke-width="2"
     stroke-linecap="round"
     stroke-linejoin="round"
     id="path3723" />
  <path
     style="fill:#00cc00;fill-rule:evenodd;stroke:#000000;stroke-width:0.0286738;stroke-opacity:0;fill-opacity:1"
     d="M 7.125448,21.908659 C 6.7372168,21.747718 6.4770637,21.317574 6.5197779,20.90723 6.5594663,20.525955 6.3057785,20.798605 10.892289,16.207885 L 15.096316,12 10.892289,7.7921147 C 6.3057785,3.2013951 6.5594663,3.4740454 6.5197779,3.0927702 6.5054189,2.9548272 6.5150748,2.8718748 6.5643893,2.7095173 6.6186647,2.5308276 6.651737,2.4776007 6.8047025,2.3227556 7.0359618,2.0886545 7.227528,2.0117062 7.5412186,2.0269117 7.9847093,2.0484089 7.5647152,1.659947 12.706104,6.8040287 17.887153,11.987792 17.476703,11.540743 17.476703,12 c 0,0.459257 0.41045,0.01221 -4.770599,5.195971 -5.160485,5.163188 -4.7216327,4.758544 -5.1792223,4.775506 -0.1916353,0.0071 -0.2577072,-0.0032 -0.4014337,-0.06282 z"
     id="path4511" />
</svg>
