<?xml version="1.0" encoding="UTF-8" standalone="no"?>
<svg
   width="2650"
   height="640"
   viewBox="0 0 2650 640"
   fill="none"
   version="1.1"
   id="svg20"
   sodipodi:docname="FreeUniswap_TextLogo_640x640_Green - copia.svg"
   inkscape:version="1.2.1 (9c6d41e410, 2022-07-14)"
   xmlns:inkscape="http://www.inkscape.org/namespaces/inkscape"
   xmlns:sodipodi="http://sodipodi.sourceforge.net/DTD/sodipodi-0.dtd"
   xmlns="http://www.w3.org/2000/svg"
   xmlns:svg="http://www.w3.org/2000/svg">
  <defs
     id="defs24">
    <rect
       x="698.28101"
       y="130.00301"
       width="2484.0122"
       height="372.272"
       id="rect4532" />
  </defs>
  <sodipodi:namedview
     id="namedview22"
     pagecolor="#505050"
     bordercolor="#ffffff"
     borderopacity="1"
     inkscape:showpageshadow="0"
     inkscape:pageopacity="0"
     inkscape:pagecheckerboard="1"
     inkscape:deskcolor="#505050"
     showgrid="false"
     inkscape:zoom="0.67018868"
     inkscape:cx="1325"
     inkscape:cy="319.31306"
     inkscape:window-width="1920"
     inkscape:window-height="1017"
     inkscape:window-x="-8"
     inkscape:window-y="-8"
     inkscape:window-maximized="1"
     inkscape:current-layer="svg20" />
  <path
     d="m 224.534,123.226 c -5.842,-0.906 -6.089,-1.013 -3.339,-1.435 5.269,-0.811 17.71,0.294 26.284,2.332 20.015,4.758 38.228,16.946 57.669,38.591 l 5.165,5.751 7.388,-1.188 c 31.127,-5.002 62.792,-1.027 89.277,11.208 7.286,3.366 18.774,10.067 20.209,11.789 0.458,0.548 1.298,4.081 1.866,7.85 1.967,13.04 0.983,23.036 -3.006,30.501 -2.17,4.063 -2.291,5.35 -0.832,8.827 1.165,2.775 4.412,4.828 7.628,4.824 6.582,-0.009 13.666,-10.649 16.948,-25.453 l 1.304,-5.88 2.583,2.925 c 14.168,16.052 25.296,37.943 27.207,53.525 l 0.498,4.062 -2.381,-3.693 c -4.099,-6.355 -8.217,-10.682 -13.49,-14.171 -9.506,-6.29 -19.557,-8.43 -46.175,-9.833 -24.041,-1.267 -37.647,-3.32 -51.139,-7.72 -22.954,-7.484 -34.526,-17.451 -61.793,-53.226 -12.111,-15.889 -19.597,-24.681 -27.043,-31.761 -16.92,-16.087 -33.546,-24.524 -54.828,-27.825 z"
     fill="#FF007A"
     id="path2"
     style="fill:#00cc00;fill-opacity:1" />
  <path
     d="m 432.61,158.704 c 0.605,-10.647 2.049,-17.671 4.952,-24.084 1.149,-2.539 2.226,-4.617 2.392,-4.617 0.166,0 -0.333,1.874 -1.11,4.164 -2.111,6.225 -2.457,14.738 -1.004,24.644 1.846,12.568 2.895,14.381 16.179,27.958 6.231,6.368 13.478,14.399 16.105,17.847 l 4.777,6.27 -4.777,-4.481 c -5.842,-5.479 -19.277,-16.165 -22.245,-17.693 -1.989,-1.024 -2.285,-1.007 -3.513,0.215 -1.131,1.126 -1.369,2.817 -1.526,10.814 -0.244,12.463 -1.943,20.463 -6.043,28.462 -2.217,4.326 -2.567,3.403 -0.56,-1.48 1.498,-3.646 1.65,-5.249 1.639,-17.315 -0.023,-24.241 -2.901,-30.069 -19.779,-40.053 -4.276,-2.529 -11.321,-6.177 -15.655,-8.106 -4.335,-1.929 -7.778,-3.61 -7.653,-3.735 0.478,-0.476 16.938,4.328 23.563,6.876 9.854,3.791 11.481,4.282 12.678,3.825 0.802,-0.306 1.19,-2.643 1.58,-9.511 z"
     fill="#FF007A"
     id="path4"
     style="fill:#00cc00;fill-opacity:1" />
  <path
     d="m 235.883,200.175 c -11.861,-16.329 -19.199,-41.366 -17.611,-60.082 l 0.492,-5.792 2.699,0.493 c 5.071,0.925 13.812,4.179 17.906,6.665 11.233,6.822 16.096,15.804 21.044,38.869 1.449,6.755 3.35,14.4 4.225,16.989 1.409,4.166 6.731,13.897 11.058,20.217 3.117,4.551 1.047,6.708 -5.843,6.086 -10.522,-0.95 -24.775,-10.786 -33.97,-23.445 z"
     fill="#FF007A"
     id="path6"
     style="fill:#00cc00;fill-opacity:1" />
  <path
     d="m 418.223,321.707 c -55.43,-22.318 -74.952,-41.69 -74.952,-74.376 0,-4.81 0.166,-8.746 0.367,-8.746 0.202,0 2.347,1.588 4.766,3.528 11.24,9.015 23.827,12.866 58.672,17.949 20.504,2.992 32.043,5.408 42.687,8.938 33.832,11.22 54.764,33.99 59.755,65.004 1.451,9.012 0.6,25.911 -1.752,34.818 -1.856,7.035 -7.521,19.715 -9.024,20.201 -0.417,0.135 -0.825,-1.461 -0.932,-3.634 -0.57,-11.645 -6.455,-22.983 -16.338,-31.476 -11.237,-9.656 -26.335,-17.344 -63.249,-32.206 z"
     fill="#FF007A"
     id="path8"
     style="fill:#00cc00;fill-opacity:1" />
  <path
     d="m 379.31,330.978 c -0.695,-4.132 -1.899,-9.41 -2.677,-11.728 l -1.414,-4.214 2.627,2.949 c 3.635,4.08 6.508,9.302 8.943,16.256 1.858,5.308 2.067,6.886 2.053,15.512 -0.014,8.468 -0.246,10.243 -1.962,15.02 -2.706,7.534 -6.064,12.876 -11.699,18.61 -10.125,10.305 -23.143,16.01 -41.928,18.377 -3.266,0.411 -12.783,1.104 -21.15,1.539 -21.087,1.096 -34.965,3.362 -47.435,7.741 -1.793,0.63 -3.394,1.012 -3.556,0.85 -0.505,-0.502 7.986,-5.564 14.999,-8.942 9.888,-4.763 19.731,-7.362 41.786,-11.035 10.895,-1.815 22.146,-4.016 25.003,-4.892 26.98,-8.272 40.848,-29.619 36.41,-56.043 z"
     fill="#FF007A"
     id="path10"
     style="fill:#00cc00;fill-opacity:1" />
  <path
     d="m 404.719,376.105 c -7.364,-15.832 -9.055,-31.117 -5.021,-45.373 0.432,-1.523 1.126,-2.77 1.544,-2.77 0.417,0 2.155,0.94 3.861,2.088 3.394,2.285 10.2,6.132 28.334,16.019 22.628,12.337 35.529,21.89 44.303,32.804 7.683,9.559 12.438,20.445 14.727,33.72 1.295,7.52 0.536,25.613 -1.393,33.185 -6.084,23.875 -20.224,42.628 -40.392,53.571 -2.955,1.603 -5.607,2.92 -5.894,2.926 -0.287,0.005 0.789,-2.732 2.392,-6.084 6.785,-14.182 7.557,-27.977 2.428,-43.332 -3.141,-9.402 -9.544,-20.874 -22.473,-40.263 -15.032,-22.542 -18.718,-28.542 -22.416,-36.491 z"
     fill="#FF007A"
     id="path12"
     style="fill:#00cc00;fill-opacity:1" />
  <path
     d="m 196.519,461.525 c 20.57,-17.368 46.163,-29.706 69.477,-33.493 10.047,-1.633 26.784,-0.985 36.088,1.396 14.914,3.817 28.254,12.365 35.192,22.55 6.781,9.954 9.69,18.628 12.719,37.928 1.194,7.613 2.494,15.258 2.887,16.989 2.274,10.002 6.701,17.997 12.185,22.012 8.712,6.376 23.713,6.773 38.469,1.017 2.505,-0.977 4.679,-1.653 4.832,-1.5 0.535,0.531 -6.895,5.506 -12.138,8.124 -7.053,3.523 -12.662,4.886 -20.115,4.886 -13.515,0 -24.736,-6.876 -34.099,-20.895 -1.842,-2.759 -5.984,-11.023 -9.203,-18.363 -9.885,-22.548 -14.767,-29.417 -26.245,-36.934 -9.989,-6.541 -22.871,-7.712 -32.562,-2.96 -12.73,6.241 -16.282,22.509 -7.164,32.819 3.623,4.097 10.381,7.631 15.907,8.318 10.337,1.286 19.221,-6.578 19.221,-17.015 0,-6.777 -2.605,-10.644 -9.162,-13.603 -8.956,-4.041 -18.582,0.682 -18.536,9.096 0.02,3.587 1.582,5.84 5.178,7.467 2.307,1.044 2.361,1.127 0.479,0.736 -8.217,-1.704 -10.142,-11.61 -3.535,-18.187 7.932,-7.895 24.335,-4.411 29.968,6.366 2.366,4.526 2.641,13.541 0.578,18.985 -4.618,12.184 -18.081,18.591 -31.739,15.104 -9.298,-2.374 -13.084,-4.944 -24.295,-16.492 -19.481,-20.067 -27.044,-23.956 -55.129,-28.34 l -5.382,-0.84 z"
     fill="#FF007A"
     id="path14"
     style="fill:#00cc00;fill-opacity:1" />
  <path
     fill-rule="evenodd"
     clip-rule="evenodd"
     d="M 49.6202,12.0031 C 114.678,90.9638 214.977,213.901 219.957,220.784 c 4.111,5.683 2.564,10.792 -4.479,14.796 -3.917,2.227 -11.97,4.483 -16.002,4.483 -4.56,0 -9.697,-2.196 -13.438,-5.745 -2.645,-2.508 -13.317,-18.444 -37.954,-56.672 -18.851,-29.25 -34.627,-53.515 -35.057,-53.921 -0.995,-0.94 -0.978,-0.908 33.135,60.129 21.42,38.327 28.651,51.877 28.651,53.689 0,3.686 -1.005,5.623 -5.552,10.695 -7.58,8.456 -10.968,17.957 -13.414,37.621 -2.743,22.043 -10.453,37.614 -31.821,64.263 -12.508,15.6 -14.555,18.459 -17.711,24.747 -3.976,7.917 -5.069,12.352 -5.512,22.35 -0.468,10.571 0.444,17.4 3.674,27.507 2.827,8.849 5.778,14.691 13.323,26.378 6.511,10.084 10.261,17.579 10.261,20.51 0,2.333 0.445,2.336 10.535,0.058 24.145,-5.453 43.752,-15.043 54.779,-26.795 6.824,-7.274 8.426,-11.291 8.478,-21.259 0.034,-6.52 -0.195,-7.885 -1.957,-11.636 -2.869,-6.105 -8.092,-11.181 -19.604,-19.05 -15.083,-10.311 -21.525,-18.612 -23.305,-30.028 -1.46,-9.367 0.234,-15.976 8.578,-33.464 8.637,-18.102 10.777,-25.816 12.225,-44.062 0.935,-11.789 2.23,-16.438 5.617,-20.169 3.532,-3.892 6.712,-5.209 15.454,-6.404 14.252,-1.947 23.327,-5.634 30.787,-12.508 6.471,-5.963 9.179,-11.709 9.595,-20.359 l 0.315,-6.556 -3.616,-4.216 C 222.846,199.896 40.85,0 40.044,0 39.8719,0 44.1813,5.40178 49.6202,12.0031 Z M 135.412,409.18 c 2.961,-5.243 1.388,-11.985 -3.565,-15.278 -4.68,-3.112 -11.95,-1.646 -11.95,2.409 0,1.237 0.685,2.138 2.227,2.932 2.596,1.336 2.785,2.838 0.742,5.909 -2.069,3.11 -1.902,5.844 0.471,7.702 3.825,2.995 9.239,1.348 12.075,-3.674 z"
     fill="#FF007A"
     id="path16"
     style="fill:#00cc00;fill-opacity:1" />
  <path
     fill-rule="evenodd"
     clip-rule="evenodd"
     d="m 248.552,262.244 c -6.69,2.055 -13.194,9.146 -15.208,16.582 -1.228,4.536 -0.531,12.493 1.309,14.95 2.972,3.969 5.846,5.015 13.629,4.96 15.236,-0.106 28.482,-6.641 30.022,-14.811 1.263,-6.696 -4.555,-15.977 -12.568,-20.051 -4.135,-2.102 -12.929,-2.936 -17.184,-1.63 z m 17.812,13.928 c 2.35,-3.338 1.322,-6.947 -2.674,-9.387 -7.61,-4.647 -19.119,-0.802 -19.119,6.388 0,3.579 6.001,7.483 11.503,7.483 3.661,0 8.672,-2.183 10.29,-4.484 z"
     fill="#FF007A"
     id="path18"
     style="fill:#00cc00;fill-opacity:1" />
  <path
     style="fill:#00cc00;fill-opacity:1;stroke:#000000;stroke-width:0.764636;stroke-opacity:0"
     d="m 128.12639,470.24811 c -0.60816,-3.24176 -4.26345,-10.2474 -10.51282,-20.1486 -12.65135,-20.04422 -17.47812,-35.69585 -16.37757,-53.1071 0.64161,-10.15057 1.48333,-13.50226 5.41348,-21.55633 2.41047,-4.9398 6.51382,-10.87345 14.54128,-21.02748 25.02409,-31.65324 31.25398,-44.02432 35.21434,-69.92732 2.93945,-19.22576 5.56229,-26.43397 12.95093,-35.59239 4.81095,-5.96332 5.74552,-7.65496 5.74552,-10.3998 0,-2.74525 -7.65531,-17.32097 -32.43342,-61.75328 -11.22492,-20.12864 -20.26376,-36.74272 -20.0863,-36.92019 0.17746,-0.17746 11.80893,17.42211 25.84771,39.11017 32.50336,50.21337 36.42415,55.70831 41.96473,58.81313 3.51989,1.97247 5.01574,2.35259 9.17562,2.33169 9.21112,-0.0463 20.69857,-5.45043 22.38296,-10.52981 1.73456,-5.23067 0.55873,-6.88153 -42.31464,-59.40938 -7.37996,-9.04181 -25.77655,-31.57945 -40.88132,-50.08363 C 123.65212,101.54361 98.613957,70.974364 83.116523,52.116137 67.619089,33.25791 55.079034,17.688788 55.249735,17.518087 55.708488,17.059334 200.38638,175.78871 234.2562,213.91012 l 5.24783,5.90658 -0.80742,6.82882 c -0.98336,8.31677 -3.3344,13.34852 -8.66128,18.53706 -7.06009,6.87674 -14.95846,10.34317 -29.49888,12.94643 -10.97914,1.96567 -14.04265,3.15627 -17.10983,6.64959 -3.6845,4.19642 -4.42644,6.8085 -6.07366,21.38289 -2.30408,20.38631 -3.12876,23.24706 -12.92102,44.82231 -7.24491,15.96267 -8.93062,22.50765 -7.87188,30.56361 1.64618,12.52569 7.6944,20.51532 24.67042,32.58938 9.84233,7.00027 15.2633,12.30353 17.90456,17.5158 1.74394,3.44151 2.01636,4.93652 2.03336,11.15887 0.0233,8.52904 -0.77348,11.9054 -3.9364,16.68055 -8.39062,12.66751 -29.06237,24.25295 -54.99741,30.82318 -13.14711,3.33061 -13.47108,3.32907 -14.1082,-0.067 z m 2.91659,-56.49252 c 1.3943,-0.58258 3.31568,-2.32226 4.26975,-3.86597 1.43742,-2.3258 1.67784,-3.59219 1.40309,-7.39062 -0.29136,-4.02797 -0.66418,-4.91649 -3.07415,-7.32646 -3.59497,-3.59498 -8.97247,-4.37917 -12.25577,-1.78723 -2.72161,2.14852 -2.65146,3.42792 0.33762,6.15802 l 2.44037,2.22893 -1.72808,3.46015 c -1.96486,3.93425 -1.69229,5.75721 1.20115,8.03318 2.31807,1.82339 3.95548,1.93173 7.40602,0.49 z"
     id="path1206" />
  <path
     style="fill:#00cc00;fill-opacity:1;stroke:#000000;stroke-width:0.764636;stroke-opacity:0"
     d="m 266.29547,222.50123 c -14.29513,-3.93582 -28.35233,-17.02379 -37.22755,-34.66074 -6.70843,-13.33109 -10.38214,-28.83209 -10.38214,-43.80684 0,-10.63409 -0.44092,-10.28753 9.04081,-7.10591 8.78619,2.94823 14.26277,6.18717 18.86283,11.15578 6.04663,6.53109 8.41777,12.25545 13.39492,32.3377 4.55934,18.39647 6.31364,22.88171 13.40936,34.28379 3.36882,5.41334 3.94969,6.99436 2.82509,7.68941 -1.6676,1.03063 -6.38359,1.08139 -9.92332,0.10681 z"
     id="path1208" />
  <path
     style="fill:#00cc00;fill-opacity:1;stroke:#000000;stroke-width:0.764636;stroke-opacity:0"
     d="m 477.58317,265.05507 c -3.55172,-5.14168 -11.15011,-11.75494 -16.57247,-14.42388 -8.34752,-4.10873 -16.98901,-5.65889 -39.31416,-7.05244 -27.3601,-1.70782 -39.91914,-3.5967 -53.50511,-8.04714 -22.59429,-7.40133 -32.9115,-16.33081 -62.10625,-53.75258 -14.98454,-19.20714 -22.76626,-28.04815 -30.63685,-34.80729 -15.26696,-13.11102 -28.39486,-19.64072 -47.2046,-23.47914 l -6.88172,-1.40432 5.35245,-0.0599 c 12.79402,-0.14329 28.73239,3.88739 40.87648,10.3373 10.70276,5.6844 18.14794,11.53353 30.87313,24.25475 l 12.10803,12.10426 8.91945,-1.39026 c 12.01601,-1.87291 37.67962,-1.87012 48.68049,0.005 20.51814,3.4979 39.02419,10.35404 53.97309,19.99602 4.92773,3.17836 5.0561,3.34541 5.94901,7.74132 1.41865,6.98413 1.8929,17.80707 0.99041,22.60222 -0.44986,2.39025 -1.90553,7.09819 -3.23483,10.4621 l -2.41689,6.11618 1.42576,2.89774 c 2.9645,6.02513 9.15914,7.07853 14.42695,2.45333 3.43903,-3.01951 8.12924,-12.46283 10.33279,-20.80416 1.46123,-5.53136 1.92514,-6.46631 2.83416,-5.71189 2.39686,1.98921 12.44119,16.08018 16.14221,22.64553 6.47876,11.49286 12.08323,26.64821 11.44765,30.95623 -0.19723,1.33687 -0.57928,1.08221 -2.45918,-1.63924 z"
     id="path1210" />
  <path
     style="fill:#00cc00;fill-opacity:1;stroke:#000000;stroke-width:0.764636;stroke-opacity:0"
     d="m 438.01313,212.95865 c 0.2879,-13.70778 -0.65226,-22.93335 -2.84145,-27.88236 -3.13741,-7.09264 -9.97611,-12.63358 -25.70931,-20.83051 -5.0466,-2.62926 -8.88131,-4.78919 -8.52157,-4.79986 1.21257,-0.036 13.82174,3.98657 20.63017,6.58136 3.71588,1.41618 7.5566,2.57487 8.53494,2.57487 2.01498,0 2.26427,-0.98548 3.09478,-12.23417 0.48785,-6.60762 2.30455,-16.26917 3.45067,-18.35125 0.34724,-0.63083 0.43474,1.94982 0.19443,5.73476 -0.46711,7.35725 0.59802,17.65376 2.48273,24.00026 1.43,4.81534 5.26339,9.72935 19.26168,24.69153 10.59762,11.32734 14.22577,16.10876 7.64636,10.07689 -4.12527,-3.78197 -15.69688,-12.76386 -17.99782,-13.96993 -2.60694,-1.36646 -4.63566,-0.38199 -5.07063,2.4606 -0.20552,1.34308 -0.58277,6.22691 -0.83833,10.85296 -0.48938,8.85844 -1.80873,16.64707 -3.53949,20.89497 -0.92133,2.26128 -1.00762,1.17316 -0.77716,-9.80012 z"
     id="path1212" />
  <path
     style="fill:#00cc00;fill-opacity:1;stroke:#000000;stroke-width:0.764636;stroke-opacity:0"
     d="m 498.51574,387.09677 c -0.10472,-3.75189 -2.43966,-13.26681 -4.13514,-16.85078 -8.12996,-17.18532 -23.01213,-27.05625 -70.00784,-46.43429 -53.39178,-22.01537 -72.68438,-36.86078 -78.68524,-60.54729 -1.67036,-6.59322 -2.59926,-17.54005 -1.79091,-21.10545 l 0.57233,-2.52443 4.2052,3.16357 c 11.69315,8.79675 22.45673,12.00324 60.22439,17.94098 9.36254,1.47196 20.37329,3.39805 24.46834,4.28022 38.33199,8.25753 63.17406,27.75109 72.76419,57.09801 6.29249,19.25576 4.51033,43.43845 -4.51949,61.32643 -2.32368,4.60317 -3.04554,5.45496 -3.09583,3.65303 z"
     id="path1214" />
  <path
     style="fill:#00cc00;fill-opacity:1;stroke:#000000;stroke-width:0.764636;stroke-opacity:0"
     d="m 445.78256,500.77332 c 0,-0.24492 1.03191,-2.79643 2.29314,-5.67003 3.73307,-8.50546 4.89089,-14.02304 4.89418,-23.32312 0.006,-17.22792 -4.45086,-27.24905 -28.49146,-64.06114 -6.65192,-10.18573 -13.5119,-20.92811 -15.24439,-23.87196 -9.33513,-15.86222 -13.07367,-33.7074 -10.18313,-48.60705 1.43411,-7.39233 1.54653,-7.47476 6.24817,-4.58181 2.21004,1.35985 12.59868,7.26424 23.08587,13.12087 10.48719,5.85664 22.65206,13.08832 27.03305,16.07041 19.60067,13.34199 30.30192,27.41789 35.17694,46.27004 1.83774,7.10672 1.93111,8.37591 1.59592,21.69409 -0.31449,12.49618 -0.59501,14.94777 -2.4055,21.02327 -6.50801,21.83904 -19.96215,39.17335 -38.53264,49.64542 -5.05669,2.85151 -5.47015,3.02468 -5.47015,2.29101 z"
     id="path1216" />
  <path
     style="fill:#00cc00;fill-opacity:1;stroke:#000000;stroke-width:0.764636;stroke-opacity:0"
     d="m 264.56392,409.89825 c 0,-0.6669 11.26533,-6.51866 16.82198,-8.73815 8.33467,-3.32912 15.49299,-5.04414 38.63641,-9.25671 20.54194,-3.73904 28.94937,-6.06417 35.53325,-9.82698 12.0994,-6.91504 20.1377,-16.98565 23.34849,-29.25167 1.80893,-6.91057 1.67006,-18.37969 -0.33193,-27.41357 -0.87822,-3.96293 -1.49409,-7.30799 -1.36861,-7.43348 0.55568,-0.55568 5.95983,8.66861 8.23742,14.06035 2.28069,5.39909 2.53504,6.79499 2.83656,15.56767 0.38004,11.0569 -0.48838,15.19625 -5.03663,24.00719 -3.60829,6.99006 -13.10789,16.63205 -20.34795,20.65295 -11.91285,6.61601 -22.46471,8.85972 -50.32472,10.70085 -18.90419,1.24929 -32.28335,3.08272 -41.68635,5.71256 -5.89842,1.64968 -6.31792,1.73062 -6.31792,1.21899 z"
     id="path1218" />
  <path
     style="fill:#00cc00;fill-opacity:1;stroke:#000000;stroke-width:0.764636;stroke-opacity:0"
     d="m 241.71875,297.82398 c -5.94319,-1.40318 -8.38587,-5.26578 -8.46113,-13.37954 -0.0811,-8.74435 6.45569,-18.23826 14.73439,-21.39993 4.38716,-1.67547 11.79841,-1.22235 16.89722,1.0331 6.12517,2.70945 11.85076,9.85127 13.05837,16.28838 1.46503,7.80926 -8.50313,15.33213 -23.11561,17.44511 -5.98894,0.86601 -9.48527,0.86944 -13.11324,0.0129 z m 19.60959,-18.00384 c 4.43667,-1.85376 6.29412,-4.00595 6.29412,-7.29286 0,-8.19144 -15.22424,-11.03748 -21.54319,-4.02731 -3.46017,3.83869 -1.72238,8.32801 4.27879,11.05361 3.82751,1.73837 7.24878,1.8215 10.97028,0.26656 z"
     id="path1220" />
  <path
     style="fill:#00cc00;fill-opacity:1;stroke:#000000;stroke-width:0.764636;stroke-opacity:0"
     d="m 366.10577,539.50333 c -13.24584,-4.23521 -20.83734,-12.3846 -30.53845,-32.78268 -12.76442,-26.83914 -15.50389,-31.27571 -23.30006,-37.73433 -11.04915,-9.15348 -23.0338,-11.96058 -35.12291,-8.22663 -6.69972,2.06933 -12.42023,7.45914 -14.47148,13.63485 -1.69707,5.1094 -1.27492,12.17683 0.99286,16.62204 3.61748,7.09085 13.16648,12.63757 21.68634,12.59693 5.16615,-0.0246 9.28823,-1.8893 12.65611,-5.7251 3.14754,-3.58485 4.25218,-7.33606 3.88027,-13.17684 -0.37985,-5.96548 -1.9011,-8.28332 -7.39939,-11.274 -9.82789,-5.34568 -20.45236,-0.77354 -20.31096,8.74064 0.0327,2.19707 -0.20292,3.37533 -0.56178,2.80989 -1.14099,-1.79784 -0.6554,-6.85774 0.92861,-9.6761 2.42214,-4.30961 6.17059,-6.47521 11.83199,-6.8357 8.81942,-0.56158 16.13489,3.3138 19.58621,10.37582 2.70021,5.5251 2.54785,14.33279 -0.35018,20.24408 -5.47875,11.17533 -18.99082,16.26038 -32.39156,12.19004 -7.34701,-2.23159 -11.21793,-5.054 -24.32267,-17.7344 -12.86883,-12.45214 -17.19396,-15.8482 -24.27007,-19.05666 -6.02617,-2.7324 -11.99824,-4.33104 -24.07507,-6.44457 l -9.3389,-1.63438 6.78056,-5.51823 c 19.25969,-15.67415 42.68137,-27.31048 63.51726,-31.55656 13.13696,-2.67714 33.33835,-1.92988 44.34174,1.64024 10.11569,3.2821 18.23836,8.14268 25.33021,15.15756 5.6009,5.5401 7.12374,7.62153 10.08852,13.78908 4.11481,8.5599 5.75002,14.68924 8.87372,33.26164 1.27319,7.5699 2.87736,15.65592 3.56483,17.96894 2.92201,9.8312 8.84369,17.59667 15.82635,20.75408 3.58251,1.61994 5.03299,1.79706 14.3092,1.74731 10.10678,-0.0542 13.10485,-0.5982 21.02748,-3.81545 1.28826,-0.52314 1.38392,-0.44183 0.60695,0.51596 -1.55075,1.91165 -14.16078,8.19024 -18.96007,9.4403 -6.03643,1.57228 -14.97469,1.44192 -20.41566,-0.29777 z"
     id="path1222" />
  <path
     style="fill:#00cc00;fill-opacity:1;stroke:#000000;stroke-width:0.764636;stroke-opacity:0"
     d="m 475.98566,262.33795 c -4.3124,-5.32121 -12.75481,-11.51046 -18.71351,-13.71914 -7.11978,-2.63905 -17.12929,-4.07962 -40.82595,-5.87567 -29.12101,-2.20718 -42.12529,-4.71144 -56.9642,-10.96971 -15.13093,-6.38141 -26.64745,-17.21293 -51.71952,-48.6432 -23.29912,-29.20771 -32.29973,-38.28548 -47.29333,-47.69875 -7.32504,-4.5988 -15.25655,-7.93681 -25.61797,-10.78141 -6.36999,-1.74881 -6.47996,-1.81602 -3.0599,-1.87003 8.74206,-0.13806 24.16889,4.27814 35.57005,10.18256 9.46669,4.90259 17.87296,11.46825 31.61119,24.68968 l 11.85185,11.40602 6.49941,-1.09522 c 4.43721,-0.74772 12.92858,-1.11117 26.76224,-1.14549 21.89053,-0.0543 25.75124,0.42335 42.50856,5.25936 13.96413,4.02992 33.14888,13.03104 38.65991,18.13848 2.57818,2.38938 4.0407,11.59918 3.55133,22.3635 -0.29517,6.49276 -0.76626,8.70333 -3.14617,14.76354 -2.60912,6.64385 -2.72365,7.27318 -1.6881,9.27571 0.611,1.18156 2.22571,3.08633 3.58825,4.23282 2.07102,1.74265 3.00462,2.0251 5.69238,1.72215 1.76829,-0.19932 4.19339,-1.05901 5.3891,-1.91043 3.23303,-2.30212 7.45328,-10.01827 10.27654,-18.78927 1.37656,-4.27652 2.62016,-7.92841 2.76356,-8.11532 1.11073,-1.4477 14.01607,17.18383 19.3022,27.86672 4.95571,10.01514 8.6651,20.22425 8.29545,22.83106 -0.20425,1.44051 -0.63294,1.16483 -3.29337,-2.11796 z"
     id="path1224" />
  <path
     style="fill:#00cc00;fill-opacity:1;stroke:#000000;stroke-width:0.764636;stroke-opacity:0"
     d="m 476.7503,263.28042 c -3.08178,-4.15394 -11.02332,-10.6792 -15.90709,-13.07026 -7.94944,-3.89199 -15.6813,-5.24178 -40.29363,-7.03425 -30.32551,-2.20853 -43.61025,-4.56032 -58.37975,-10.33491 -17.11592,-6.69199 -28.03491,-16.6849 -54.73546,-50.09309 -31.416,-39.30825 -45.64044,-50.7064 -72.46441,-58.06631 -6.45258,-1.77045 -6.5819,-1.84781 -3.17868,-1.90156 12.10927,-0.19124 31.65542,6.70627 45.38305,16.01492 5.74085,3.89285 18.66557,15.35396 27.76674,24.62239 l 5.58623,5.6889 7.03026,-1.15857 c 4.92754,-0.81205 12.86205,-1.169 26.52846,-1.19346 17.38669,-0.0311 20.44679,0.15563 28.25766,1.72435 17.04475,3.42323 37.14838,11.20297 49.50219,19.15644 6.0924,3.92234 6.65036,5.68106 6.69741,21.11051 0.0348,11.40242 0.0189,11.51046 -2.71954,18.46475 -3.15287,8.00684 -2.94541,9.70153 1.66217,13.57856 2.14693,1.80653 3.06069,2.08927 5.76627,1.78432 1.76829,-0.19932 4.19339,-1.05901 5.3891,-1.91043 3.26608,-2.32566 7.54282,-10.18296 10.36126,-19.03592 1.38313,-4.34454 2.74981,-7.90187 3.03707,-7.90516 1.92478,-0.0221 15.22866,19.77624 19.84826,29.53741 4.39315,9.28269 7.71461,18.86671 7.39116,21.32706 -0.21794,1.65786 -0.39973,1.564 -2.52873,-1.30569 z"
     id="path1226" />
  <path
     style="fill:#00cc00;fill-opacity:1;stroke:#000000;stroke-width:0.764636;stroke-opacity:0"
     d="m 476.7503,263.26723 c -1.26165,-1.70784 -4.53047,-4.91211 -7.26404,-7.12063 -11.01062,-8.89569 -17.89127,-10.7199 -48.93668,-12.97421 -30.30021,-2.20019 -43.6049,-4.55471 -58.37975,-10.33139 -16.8044,-6.57019 -28.0236,-16.7194 -53.26109,-48.1815 -18.34725,-22.87243 -26.4992,-32.07195 -34.38655,-38.80541 -13.45465,-11.48628 -24.62243,-17.19163 -43.60224,-22.27533 l -2.67622,-0.71682 3.54755,-0.069 c 11.72919,-0.22801 32.19808,6.91005 45.14563,15.74352 5.63379,3.84366 17.48847,14.31312 26.47154,23.37837 l 7.11215,7.1772 6.26897,-1.11663 c 4.35634,-0.77595 12.45105,-1.14037 26.53182,-1.19446 18.32424,-0.0704 21.10088,0.0913 29.02229,1.6895 17.08164,3.44641 37.16175,11.21952 49.49397,19.15934 5.84303,3.7619 6.3058,5.05222 6.89473,19.2243 l 0.42979,10.34278 -2.77702,8.12736 c -1.52737,4.47006 -2.77703,8.83358 -2.77703,9.69672 0,0.86314 1.32307,2.96018 2.94015,4.66008 3.4491,3.62576 6.28532,4.02008 10.77313,1.49779 4.60767,-2.58966 10.40686,-13.1519 13.0845,-23.83118 0.50085,-1.99761 1.20589,-3.63202 1.56673,-3.63202 2.03934,0 15.35961,19.79329 20.16506,29.96434 4.11121,8.70164 7.45783,18.49877 7.14134,20.90612 -0.21767,1.65583 -0.40233,1.55953 -2.52873,-1.31888 z"
     id="path1228" />
  <path
     style="fill:#00cc00;fill-opacity:1;stroke:#000000;stroke-width:0.764636;stroke-opacity:0"
     d="m 476.38388,262.96315 c -5.13858,-6.44855 -14.67497,-13.13075 -21.80801,-15.28099 -5.88819,-1.77498 -16.81202,-3.2104 -34.40861,-4.52136 -29.7283,-2.21479 -44.49313,-4.82729 -58.12095,-10.28398 -17.51631,-7.01366 -26.39982,-15.07652 -53.12492,-48.21732 -8.30883,-10.30347 -18.09028,-22.07549 -21.73655,-26.16005 -15.47865,-17.33922 -31.49828,-27.84531 -50.91244,-33.3897 -7.42358,-2.12006 -7.7613,-2.29637 -4.48112,-2.3393 11.87599,-0.15545 32.22504,6.95098 45.14563,15.76605 5.63379,3.84366 17.48847,14.31312 26.47154,23.37837 l 7.11215,7.1772 6.26897,-1.12099 c 4.43031,-0.79221 12.3241,-1.13494 26.91413,-1.16855 19.56225,-0.0451 21.14737,0.0594 30.21944,1.99201 16.84655,3.58874 35.71789,10.93737 47.25779,18.40249 6.58639,4.26071 6.95109,5.21007 7.55145,19.65709 l 0.42979,10.34278 -2.83527,8.29783 c -3.21382,9.40574 -3.14432,10.88737 0.69069,14.72238 4.20666,4.20667 9.86658,3.04058 14.45766,-2.97863 2.63594,-3.4559 6.95941,-12.9084 8.59512,-18.79174 0.72345,-2.6021 1.59503,-4.73109 1.93686,-4.73109 2.00784,0 15.37182,19.89237 20.13046,29.96434 4.09511,8.66756 7.45935,18.49966 7.14134,20.87077 -0.21449,1.59933 -0.46513,1.46189 -2.89515,-1.58761 z"
     id="path1230" />
  <path
     style="fill:#00cc00;fill-opacity:1;stroke:#000000;stroke-width:0.764636;stroke-opacity:0"
     d="m 476.41996,263.24388 c -4.20343,-5.23422 -10.7194,-10.45276 -16.56364,-13.26557 -6.85978,-3.30159 -17.75293,-5.17056 -39.68906,-6.80959 -28.77228,-2.14982 -42.215,-4.42301 -56.08073,-9.48337 -18.13825,-6.61965 -27.81542,-15.16029 -54.25022,-47.8789 -18.85531,-23.33741 -27.94663,-33.55743 -35.54118,-39.95369 -13.3406,-11.23567 -23.46957,-16.63578 -39.93432,-21.29038 l -6.11708,-1.72931 4.04657,-0.0545 c 13.5243,-0.18224 36.33808,8.81922 49.99683,19.72687 3.4913,2.78809 11.25919,9.85068 17.26197,15.69464 l 10.91415,10.62537 8.20924,-1.06743 c 5.28805,-0.68759 15.01144,-1.04373 27.32512,-1.00082 16.64164,0.058 20.15508,0.28582 27.14456,1.7602 16.63518,3.50908 36.57789,11.26566 48.05699,18.69145 6.54414,4.23339 6.91728,5.19478 7.53662,19.41819 l 0.44047,10.11566 -2.89586,9.12048 -2.89586,9.12048 1.47696,2.52892 c 3.35837,5.75032 9.30285,6.59252 14.47552,2.05086 3.09632,-2.71861 8.69374,-13.74632 10.69403,-21.06879 0.71802,-2.62843 1.59623,-4.77897 1.95158,-4.77897 2.03024,0 15.36308,19.8218 20.15507,29.96434 4.14243,8.7677 7.45494,18.49733 7.14134,20.97576 -0.22241,1.75785 -0.37349,1.68324 -2.85907,-1.41187 z"
     id="path1232" />
  <path
     style="fill:#00cc00;fill-opacity:1;stroke:#000000;stroke-width:0.764636;stroke-opacity:0"
     d="m 472.92712,259.9107 c -12.29767,-12.42918 -17.77492,-13.97997 -61.93548,-17.53611 -30.68488,-2.47097 -48.66024,-7.22506 -63.00417,-16.66321 -7.9371,-5.22252 -21.11265,-18.73237 -34.82103,-35.70454 -6.28176,-7.77736 -14.71187,-18.09072 -18.73357,-22.91859 -20.6373,-24.77409 -35.26565,-35.14043 -59.84058,-42.40591 l -6.34856,-1.87693 4.04657,-0.0407 c 12.99394,-0.13068 34.75916,8.17637 48.44733,18.49071 3.26581,2.46086 11.28701,9.6591 17.82488,15.99608 l 11.88704,11.52177 7.83377,-1.04135 c 5.00491,-0.66532 14.87476,-1.01932 27.33197,-0.98032 17.07945,0.0535 20.49417,0.27182 27.52688,1.7602 16.66925,3.52783 36.58659,11.27686 48.05699,18.69702 6.54414,4.23339 6.91728,5.19478 7.53662,19.41819 l 0.44047,10.11566 -2.89586,9.12048 -2.89586,9.12048 1.47696,2.52892 c 3.22719,5.52571 9.15461,6.57593 14.01795,2.4837 3.19923,-2.69197 7.2918,-10.29433 10.10637,-18.7736 1.30071,-3.91857 2.4898,-7.2694 2.6424,-7.44629 1.29576,-1.50195 15.35236,18.95635 20.44772,29.76008 4.10605,8.70609 7.5272,18.63744 7.2031,20.91008 -0.20001,1.40255 -1.14168,0.73012 -6.35191,-4.53582 z"
     id="path1234" />
  <text
     xml:space="preserve"
     id="text4530"
     style="font-size:266.667px;font-family:'Palatino Linotype';-inkscape-font-specification:'Palatino Linotype';white-space:pre;shape-inside:url(#rect4532);fill:#00cc00;fill-rule:evenodd;stroke:#000000;stroke-opacity:0"
     transform="translate(-75.610042,53.725094)"><tspan
       x="698.28125"
       y="355.42465"
       id="tspan6017">FREE UNISWAP</tspan></text>
</svg>
